<svg width="33" height="33" viewBox="0 0 33 33" fill="none" xmlns="http://www.w3.org/2000/svg">
<g clip-path="url(#clip0_45_111)">
<path d="M32.9826 16.8087C32.9826 15.4567 32.8704 14.4701 32.6274 13.447H16.8287V19.5492H26.1022C25.9153 21.0657 24.9057 23.3495 22.662 24.8842L22.6306 25.0885L27.6258 28.87L27.9719 28.9037C31.1503 26.0353 32.9826 21.8148 32.9826 16.8087Z" fill="#4285F4"/>
<path d="M16.8287 32.8867C21.3719 32.8867 25.1859 31.425 27.9718 28.9038L22.662 24.8842C21.241 25.8526 19.3339 26.5286 16.8287 26.5286C12.3789 26.5286 8.60219 23.6602 7.2559 19.6956L7.05856 19.7119L1.86444 23.6401L1.79651 23.8246C4.56358 29.196 10.2474 32.8867 16.8287 32.8867Z" fill="#34A853"/>
<path d="M7.25593 19.6953C6.9007 18.6722 6.69512 17.5759 6.69512 16.4432C6.69512 15.3104 6.9007 14.2142 7.23724 13.1911L7.22783 12.9732L1.96862 8.98193L1.79654 9.06191C0.656099 11.2909 0.00170898 13.794 0.00170898 16.4432C0.00170898 19.0924 0.656099 21.5954 1.79654 23.8244L7.25593 19.6953Z" fill="#FBBC05"/>
<path d="M16.8287 6.35804C19.9883 6.35804 22.1197 7.69177 23.335 8.80634L28.084 4.27526C25.1674 1.62607 21.3719 0 16.8287 0C10.2474 0 4.56358 3.69058 1.79651 9.06203L7.23721 13.1912C8.60219 9.22652 12.3789 6.35804 16.8287 6.35804Z" fill="#EB4335"/>
</g>
<defs>
<clipPath id="clip0_45_111">
<rect width="33" height="33" fill="white"/>
</clipPath>
</defs>
</svg>
