<svg width="802" height="747" viewBox="0 0 802 747" fill="none" xmlns="http://www.w3.org/2000/svg">
<path d="M544.897 210.5C501.183 185.653 451.678 172.802 401.397 173.25C398.736 172.943 396.04 173.203 393.486 174.011C390.933 174.82 388.579 176.159 386.579 177.942C384.579 179.724 382.979 181.909 381.884 184.353C380.788 186.798 380.221 189.446 380.221 192.125C380.221 194.804 380.788 197.452 381.884 199.897C382.979 202.341 384.579 204.526 386.579 206.308C388.579 208.091 390.933 209.43 393.486 210.239C396.04 211.047 398.736 211.307 401.397 211C417.444 211.236 433.432 212.994 449.147 216.25C392.647 243.25 330.147 305.75 280.897 391.25C260.26 426.33 243.495 463.549 230.897 502.25C205.163 474.213 186.48 440.447 176.397 403.75C173.051 392.762 171.946 381.213 173.148 369.79C174.351 358.366 177.836 347.301 183.397 337.25C203.147 303 244.397 283.5 299.147 282.25C301.643 282.185 304.101 281.629 306.381 280.614C308.662 279.599 310.72 278.144 312.438 276.333C314.156 274.522 315.5 272.391 316.394 270.06C317.288 267.729 317.714 265.245 317.647 262.75C317.616 260.244 317.083 257.771 316.079 255.475C315.075 253.179 313.621 251.107 311.804 249.382C309.986 247.658 307.841 246.315 305.495 245.434C303.15 244.552 300.651 244.15 298.147 244.25C231.147 245.25 178.897 271.25 151.397 316.75C143.239 330.974 138.058 346.707 136.167 362.995C134.276 379.283 135.715 395.785 140.397 411.5C155.331 461.186 182.895 506.149 220.397 542C214.503 568.654 212.482 596.019 214.397 623.25C192.022 597.927 175.013 568.331 164.397 536.25C163.739 533.808 162.593 531.524 161.029 529.536C159.465 527.548 157.515 525.897 155.296 524.682C153.077 523.468 150.636 522.715 148.118 522.469C145.601 522.223 143.059 522.488 140.647 523.25C138.146 524.005 135.827 525.267 133.836 526.958C131.844 528.65 130.223 530.734 129.073 533.08C127.924 535.426 127.27 537.984 127.154 540.595C127.038 543.205 127.461 545.811 128.397 548.25C150.34 615.61 196.481 672.44 257.897 707.75C301.495 733.023 351.004 746.306 401.397 746.25C426.713 746.248 451.922 742.971 476.397 736.5C531.017 721.678 580.035 691.037 617.288 648.432C654.54 605.827 678.365 553.159 685.766 497.05C693.167 440.941 683.814 383.896 658.883 333.088C633.952 282.281 594.555 239.978 545.647 211.5L544.897 210.5ZM465.897 699.75C434.306 708.284 401.335 710.469 368.894 706.178C336.452 701.887 305.183 691.205 276.897 674.75C255.397 662.5 246.647 624.75 253.397 574.75C272.881 590.717 293.615 605.097 315.397 617.75C367.751 649.349 427.507 666.595 488.647 667.75C509.011 667.664 529.302 665.316 549.147 660.75C524.113 678.897 495.864 692.131 465.897 699.75ZM617.397 583.25C567.397 633.25 450.897 651.75 334.397 584.5C308.55 569.373 284.337 551.612 262.147 531.5C274.215 488.547 291.688 447.301 314.147 408.75C387.647 281.75 484.897 219.5 525.897 243.25C582.91 276.396 624.517 330.728 641.655 394.41C658.793 458.092 650.074 525.967 617.397 583.25Z" fill="url(#paint0_linear_2022_10)"/>
<path d="M105.397 266.25L29.8972 223.25C27.7418 221.741 25.2963 220.696 22.7159 220.181C20.1354 219.667 17.4762 219.694 14.9067 220.261C12.3372 220.827 9.91349 221.922 7.78908 223.474C5.66468 225.027 3.88591 227.004 2.5655 229.28C1.24508 231.556 0.411799 234.081 0.118448 236.696C-0.174903 239.311 0.078074 241.958 0.861349 244.47C1.64462 246.982 2.94112 249.304 4.66869 251.289C6.39626 253.274 8.51724 254.878 10.8972 256L86.3972 298.25C89.3285 299.805 92.5801 300.661 95.8972 300.75C99.2351 300.733 102.511 299.848 105.404 298.183C108.297 296.517 110.707 294.128 112.397 291.25C114.619 286.972 115.133 282.01 113.833 277.368C112.533 272.726 109.518 268.752 105.397 266.25Z" fill="url(#paint1_linear_2022_10)"/>
<path d="M208.647 163C210.158 166.033 212.472 168.593 215.337 170.4C218.203 172.208 221.51 173.193 224.897 173.25C228.23 173.276 231.509 172.413 234.397 170.75C238.518 168.248 241.533 164.274 242.833 159.632C244.133 154.99 243.619 150.028 241.397 145.75L197.897 70.7502C195.356 66.6725 191.364 63.7091 186.725 62.4567C182.087 61.2042 177.146 61.7558 172.897 64.0002C168.73 66.4591 165.675 70.4336 164.371 75.0927C163.066 79.7519 163.613 84.735 165.897 89.0002L208.647 163Z" fill="url(#paint2_linear_2022_10)"/>
<path d="M401.397 125.25C406.436 125.25 411.269 123.248 414.832 119.685C418.395 116.122 420.397 111.289 420.397 106.25V19C420.397 13.9609 418.395 9.12816 414.832 5.56497C411.269 2.00178 406.436 0 401.397 0C396.358 0 391.525 2.00178 387.962 5.56497C384.399 9.12816 382.397 13.9609 382.397 19V106.25C382.397 111.289 384.399 116.122 387.962 119.685C391.525 123.248 396.358 125.25 401.397 125.25Z" fill="url(#paint3_linear_2022_10)"/>
<path d="M568.397 170C572.662 172.284 577.646 172.831 582.305 171.527C586.964 170.222 590.938 167.167 593.397 163L637.147 88.0002C639.431 83.735 639.978 78.7519 638.674 74.0927C637.369 69.4336 634.314 65.4591 630.147 63.0002C625.899 60.7557 620.958 60.2042 616.319 61.4567C611.681 62.7091 607.689 65.6725 605.147 69.7502L561.647 144.75C559.328 149.023 558.735 154.023 559.991 158.72C561.247 163.417 564.255 167.454 568.397 170Z" fill="url(#paint4_linear_2022_10)"/>
<path d="M798.897 229.5C796.356 225.423 792.364 222.459 787.725 221.207C783.087 219.954 778.146 220.506 773.897 222.75L698.897 266.25C694.777 268.752 691.761 272.726 690.462 277.368C689.162 282.01 689.675 286.973 691.897 291.25C693.588 294.128 695.998 296.517 698.891 298.183C701.783 299.848 705.059 300.733 708.397 300.75C711.714 300.661 714.966 299.805 717.897 298.25L792.897 254.5C796.848 251.843 799.657 247.799 800.768 243.169C801.879 238.539 801.211 233.661 798.897 229.5Z" fill="url(#paint5_linear_2022_10)"/>
<defs>
<linearGradient id="paint0_linear_2022_10" x1="688.231" y1="432.564" x2="127.135" y2="486.811" gradientUnits="userSpaceOnUse">
<stop stop-color="#6366F1"/>
<stop offset="0.466249" stop-color="#A855F7"/>
</linearGradient>
<linearGradient id="paint1_linear_2022_10" x1="57.2683" y1="219.814" x2="57.2683" y2="300.75" gradientUnits="userSpaceOnUse">
<stop stop-color="#A855F7"/>
<stop offset="1" stop-color="#A855F7"/>
</linearGradient>
<linearGradient id="paint2_linear_2022_10" x1="203.606" y1="61.7998" x2="203.606" y2="173.251" gradientUnits="userSpaceOnUse">
<stop stop-color="#A855F7"/>
<stop offset="1" stop-color="#A855F7"/>
</linearGradient>
<linearGradient id="paint3_linear_2022_10" x1="401.397" y1="0" x2="401.397" y2="125.25" gradientUnits="userSpaceOnUse">
<stop stop-color="#A855F7"/>
<stop offset="1" stop-color="#A855F7"/>
</linearGradient>
<linearGradient id="paint4_linear_2022_10" x1="639.368" y1="114.039" x2="559.346" y2="118.982" gradientUnits="userSpaceOnUse">
<stop offset="0.203516" stop-color="#6366F1"/>
<stop offset="1" stop-color="#992DFF"/>
</linearGradient>
<linearGradient id="paint5_linear_2022_10" x1="745.525" y1="220.55" x2="745.525" y2="300.75" gradientUnits="userSpaceOnUse">
<stop stop-color="#6366F1"/>
<stop offset="1" stop-color="#6366F1"/>
</linearGradient>
</defs>
</svg>
